<svg width="67" height="64" viewBox="0 0 67 64" fill="none" xmlns="http://www.w3.org/2000/svg">
<rect x="1" width="64" height="64" fill="black"/>
<g filter="url(#filter0_f_1_8)">
<path d="M18.0898 34.3994H8.95898L8.91016 29.3701H16.5762C17.9271 29.3701 19.0339 29.1992 19.8965 28.8574C20.7591 28.4993 21.402 27.9867 21.8252 27.3193C22.2646 26.6357 22.4844 25.8057 22.4844 24.8291C22.4844 23.7223 22.2728 22.8271 21.8496 22.1436C21.4427 21.46 20.7998 20.9635 19.9209 20.6543C19.0583 20.3451 17.9434 20.1904 16.5762 20.1904H11.498V50H4.17383V14.4531H16.5762C18.6432 14.4531 20.4906 14.6484 22.1182 15.0391C23.762 15.4297 25.1536 16.0238 26.293 16.8213C27.4323 17.6188 28.3031 18.6279 28.9053 19.8486C29.5075 21.0531 29.8086 22.4854 29.8086 24.1455C29.8086 25.6104 29.4749 26.9613 28.8076 28.1982C28.1566 29.4352 27.123 30.4443 25.707 31.2256C24.3073 32.0068 22.4762 32.4382 20.2139 32.5195L18.0898 34.3994ZM17.7725 50H6.95703L9.81348 44.2871H17.7725C19.0583 44.2871 20.1081 44.0837 20.9219 43.6768C21.7357 43.2536 22.3379 42.6839 22.7285 41.9678C23.1191 41.2516 23.3145 40.4297 23.3145 39.502C23.3145 38.4603 23.1354 37.557 22.7773 36.792C22.4355 36.027 21.8822 35.4411 21.1172 35.0342C20.3522 34.611 19.3431 34.3994 18.0898 34.3994H11.0342L11.083 29.3701H19.8721L21.5566 31.3477C23.7214 31.3151 25.4629 31.6976 26.7812 32.4951C28.1159 33.2764 29.0843 34.2936 29.6865 35.5469C30.305 36.8001 30.6143 38.1429 30.6143 39.5752C30.6143 41.8538 30.1178 43.7744 29.125 45.3369C28.1322 46.8831 26.6755 48.0469 24.7549 48.8281C22.8506 49.6094 20.5231 50 17.7725 50ZM50.0234 34.3994H40.8926L40.8438 29.3701H48.5098C49.8607 29.3701 50.9674 29.1992 51.8301 28.8574C52.6927 28.4993 53.3356 27.9867 53.7588 27.3193C54.1982 26.6357 54.418 25.8057 54.418 24.8291C54.418 23.7223 54.2064 22.8271 53.7832 22.1436C53.3763 21.46 52.7334 20.9635 51.8545 20.6543C50.9919 20.3451 49.877 20.1904 48.5098 20.1904H43.4316V50H36.1074V14.4531H48.5098C50.5768 14.4531 52.4242 14.6484 54.0518 15.0391C55.6956 15.4297 57.0872 16.0238 58.2266 16.8213C59.3659 17.6188 60.2367 18.6279 60.8389 19.8486C61.4411 21.0531 61.7422 22.4854 61.7422 24.1455C61.7422 25.6104 61.4085 26.9613 60.7412 28.1982C60.0902 29.4352 59.0566 30.4443 57.6406 31.2256C56.2409 32.0068 54.4098 32.4382 52.1475 32.5195L50.0234 34.3994ZM49.7061 50H38.8906L41.7471 44.2871H49.7061C50.9919 44.2871 52.0417 44.0837 52.8555 43.6768C53.6693 43.2536 54.2715 42.6839 54.6621 41.9678C55.0527 41.2516 55.248 40.4297 55.248 39.502C55.248 38.4603 55.069 37.557 54.7109 36.792C54.3691 36.027 53.8158 35.4411 53.0508 35.0342C52.2858 34.611 51.2767 34.3994 50.0234 34.3994H42.9678L43.0166 29.3701H51.8057L53.4902 31.3477C55.6549 31.3151 57.3965 31.6976 58.7148 32.4951C60.0495 33.2764 61.0179 34.2936 61.6201 35.5469C62.2386 36.8001 62.5479 38.1429 62.5479 39.5752C62.5479 41.8538 62.0514 43.7744 61.0586 45.3369C60.0658 46.8831 58.609 48.0469 56.6885 48.8281C54.7842 49.6094 52.4567 50 49.7061 50Z" fill="white"/>
</g>
<path d="M18.0898 34.3994H8.95898L8.91016 29.3701H16.5762C17.9271 29.3701 19.0339 29.1992 19.8965 28.8574C20.7591 28.4993 21.402 27.9867 21.8252 27.3193C22.2646 26.6357 22.4844 25.8057 22.4844 24.8291C22.4844 23.7223 22.2728 22.8271 21.8496 22.1436C21.4427 21.46 20.7998 20.9635 19.9209 20.6543C19.0583 20.3451 17.9434 20.1904 16.5762 20.1904H11.498V50H4.17383V14.4531H16.5762C18.6432 14.4531 20.4906 14.6484 22.1182 15.0391C23.762 15.4297 25.1536 16.0238 26.293 16.8213C27.4323 17.6188 28.3031 18.6279 28.9053 19.8486C29.5075 21.0531 29.8086 22.4854 29.8086 24.1455C29.8086 25.6104 29.4749 26.9613 28.8076 28.1982C28.1566 29.4352 27.123 30.4443 25.707 31.2256C24.3073 32.0068 22.4762 32.4382 20.2139 32.5195L18.0898 34.3994ZM17.7725 50H6.95703L9.81348 44.2871H17.7725C19.0583 44.2871 20.1081 44.0837 20.9219 43.6768C21.7357 43.2536 22.3379 42.6839 22.7285 41.9678C23.1191 41.2516 23.3145 40.4297 23.3145 39.502C23.3145 38.4603 23.1354 37.557 22.7773 36.792C22.4355 36.027 21.8822 35.4411 21.1172 35.0342C20.3522 34.611 19.3431 34.3994 18.0898 34.3994H11.0342L11.083 29.3701H19.8721L21.5566 31.3477C23.7214 31.3151 25.4629 31.6976 26.7812 32.4951C28.1159 33.2764 29.0843 34.2936 29.6865 35.5469C30.305 36.8001 30.6143 38.1429 30.6143 39.5752C30.6143 41.8538 30.1178 43.7744 29.125 45.3369C28.1322 46.8831 26.6755 48.0469 24.7549 48.8281C22.8506 49.6094 20.5231 50 17.7725 50ZM50.0234 34.3994H40.8926L40.8438 29.3701H48.5098C49.8607 29.3701 50.9674 29.1992 51.8301 28.8574C52.6927 28.4993 53.3356 27.9867 53.7588 27.3193C54.1982 26.6357 54.418 25.8057 54.418 24.8291C54.418 23.7223 54.2064 22.8271 53.7832 22.1436C53.3763 21.46 52.7334 20.9635 51.8545 20.6543C50.9919 20.3451 49.877 20.1904 48.5098 20.1904H43.4316V50H36.1074V14.4531H48.5098C50.5768 14.4531 52.4242 14.6484 54.0518 15.0391C55.6956 15.4297 57.0872 16.0238 58.2266 16.8213C59.3659 17.6188 60.2367 18.6279 60.8389 19.8486C61.4411 21.0531 61.7422 22.4854 61.7422 24.1455C61.7422 25.6104 61.4085 26.9613 60.7412 28.1982C60.0902 29.4352 59.0566 30.4443 57.6406 31.2256C56.2409 32.0068 54.4098 32.4382 52.1475 32.5195L50.0234 34.3994ZM49.7061 50H38.8906L41.7471 44.2871H49.7061C50.9919 44.2871 52.0417 44.0837 52.8555 43.6768C53.6693 43.2536 54.2715 42.6839 54.6621 41.9678C55.0527 41.2516 55.248 40.4297 55.248 39.502C55.248 38.4603 55.069 37.557 54.7109 36.792C54.3691 36.027 53.8158 35.4411 53.0508 35.0342C52.2858 34.611 51.2767 34.3994 50.0234 34.3994H42.9678L43.0166 29.3701H51.8057L53.4902 31.3477C55.6549 31.3151 57.3965 31.6976 58.7148 32.4951C60.0495 33.2764 61.0179 34.2936 61.6201 35.5469C62.2386 36.8001 62.5479 38.1429 62.5479 39.5752C62.5479 41.8538 62.0514 43.7744 61.0586 45.3369C60.0658 46.8831 58.609 48.0469 56.6885 48.8281C54.7842 49.6094 52.4567 50 49.7061 50Z" fill="white"/>
<defs>
<filter id="filter0_f_1_8" x="0.173828" y="10.4531" width="66.374" height="43.5469" filterUnits="userSpaceOnUse" color-interpolation-filters="sRGB">
<feFlood flood-opacity="0" result="BackgroundImageFix"/>
<feBlend mode="normal" in="SourceGraphic" in2="BackgroundImageFix" result="shape"/>
<feGaussianBlur stdDeviation="2" result="effect1_foregroundBlur_1_8"/>
</filter>
</defs>
</svg>
